<svg xmlns="http://www.w3.org/2000/svg" version="1.1" xmlns:xlink="http://www.w3.org/1999/xlink" width="1050" height="1040"><svg xmlns="http://www.w3.org/2000/svg" viewBox="-13 80 1050 1040"><path fill="#10b981" d="m552 750.5-565-311V409l44.5-18q3-10 3-20.5 0-14-4.75-31.25T13.5 300l41 21.5Q68 344.5 68 373q0 15.5-4 31.25T52.5 435L543 707.5l-22 2.5q18-33 18-73 0-13-2.25-25.25T529 590L-13 297v-31L354 92.5Q380.5 80 404 80t44.5 11.5L945 358q38 20 58.5 43.25c13.67 15.5 20.5 35.25 20.5 59.25 0 20.333-6.17 38.333-18.5 54Q987 538 953 554.5ZM300.5 829 2.5 667.5v-31l141.5-68 13.5 30.5L48 652l252.5 137Zm267 291L2.5 810v-30.5l44.5-18q3-10 3-20.5 0-14-4.75-31.25T29 670.5L70 692a87.8 87.8 0 0 1 10.25 24.5q3.25 13 3.25 27 0 15.5-4 31.25T68 805.5L558.5 1077l-22 2.5q18-33 18-72 0-13-2.25-25.25t-7.75-21.75L410 888l52-12 106.5 57L917 769q27.5-13 53-13 32.5 0 49.75 22t17.25 53q0 61-91.5 105.5Zm-170-219.5q-64 0-87.5-35L109.5 562q-20-29.5-20-65 0-5.5.75-10.25T91.5 477L256 560.5 377 753l573-117-65.5-64 25.5-22.5 82.5 81V661l-608 124q-25.5 5-37.5 17t-12 30q0 20 16.25 28.25t42.25 8.25q14.5 0 31.75-2.25T460.5 860L954 751.5 912 692l21-22.5 59.5 77.5v30.5L468.5 892q-20 4.5-37.75 6.5t-33.25 2m180 178 353-172q38.5-19 56.5-37t18-37.5c0-11.667-3.08-21.833-9.25-30.5q-9.25-13-26.75-13-8 0-17.5 2.5t-20.5 8L582 965q4 11 5.5 23c1 8 1.5 15.83 1.5 23.5 0 12.67-1.25 24.83-3.75 36.5s-5.083 21.83-7.75 30.5m-24.5-516 322-152-528-278-314 149Zm371 216q-21.5-48-21.5-83 0-7 .75-13.75A72 72 0 0 1 906 668.5l33.5-3.5q-4.5 24.5-4.5 36.5 0 17 5.75 32.75T958 770Zm-360-71L937.5 525q27-13 40.5-29.25t13.5-35.25q0-17.5-8.5-30.75t-26-13.25q-16.5 0-41.5 12l-349 166q4 11 5.25 22.25T573 639.5q0 19-3 36.75t-6 31.25"></path></svg><style>@media (prefers-color-scheme: light) { :root { filter: none; } }
@media (prefers-color-scheme: dark) { :root { filter: none; } }
</style></svg>