<svg xmlns="http://www.w3.org/2000/svg" viewBox="28 80 969 1040"><path fill="#10b981"  d="M512 1120 53 904V545h40v333.5L512 1075l419-196.5V545h40v359ZM205 954V616h40v338Zm130 59V668h40v345ZM181 594V453.5h40V594Zm311 488.5v-533h40v533ZM148 426 47 380l16.5-37L165 389Zm163 221V478.5h40V647Zm338 366V668h40v345ZM512 753.5 27.5 550V345L128 304.5l15 37.5-75.5 30.5v151l444.5 186 444.5-186v-151L881 342l14.5-37.5 101 40.5v205Zm-227.5-363-23.5-24q25-23.5 70.25-29.5t100.25 7l-6 35q-45.5-11.5-83-8t-58 19.5m-26.5 94q-74.5 0-105.25-45.75T122 283q0-76.5 11.25-120.75T171.75 99 247 80q49 0 100.25 31.25T451 199l-29.5 27.5Q375 176 331 148t-84-28q-35 0-53.5 13.25t-25 48.5T162 283q0 62.5 8.5 97.75t29.5 49.5 58 14.25q15 0 36.25-8.25t42.5-21.5 37.5-28 21.25-27.25l37 17q-7.5 18-27.5 37t-46 35-52.75 26-48.25 10M512 574l-225-93.5 15.5-36.5L512 530l209-86 15.5 36.5Zm267 380V616h40v338ZM672.5 647V478.5h40V647ZM512 409q-45 0-69.5-7.25t-34.25-26.25-9.75-53q0-61 9-93.25t33.5-44 71-11.75 71 11.75 33.5 44 9 93.25q0 34-9.5 53t-34.25 26.25T512 409m0-40q33 0 48.75-2.25t20.25-12 4.5-32.25q0-50.5-4.25-73.5t-19.75-29.25-49.5-6.25-49.5 6.25T442.75 249t-4.25 73.5q0 22.5 4.5 32.25t20.25 12T512 369m290.5 225V453.5h40V594ZM739 390.5q-20-16-57.25-19.5t-83.25 8l-6-35q55-13 100-7t70.5 29.5Zm27 94q-21.5 0-48.25-10t-52.75-26-46-35-27.5-37l36.5-17q5.5 12.5 21.75 27.25t37.5 28 42.25 21.5 36.5 8.25q37 0 58-14.25t29.5-49.5T862 283q0-66-6.75-101.25t-25-48.5T777 120q-40.5 0-84.5 28T602 226.5L573 199q52.5-56.5 103.75-87.75T777 80q48.5 0 75.5 19t38.25 63.25T902 283q0 110-30.75 155.75T766 484.5M875.5 426 859 389l101-46 17 37Zm-537 61.5-16-36.5L512 369.5 701 451l-16 36.5L512 413Z"/></svg>