<svg xmlns="http://www.w3.org/2000/svg" viewBox="152 80 720 1040"><path fill="#10b981" d="M512 1120q-114 0-194.5-15.75t-123-45.75c-28.333-20-42.5-44.17-42.5-72.5V562.5q0-23 29-43.75t79.25-37 115-25.5T512 447t137 9.25 115.25 25.5 79 37T872 562.5V986c0 28.33-14.167 52.5-42.5 72.5q-42.5 30-122.75 45.75T512 1120m-50-137q-9.5 0-15-7.25T444.5 960l34.5-97q-17-15-24.75-29.5t-7.75-30q0-27 18.25-43.75T512 743t47.25 16.75 18.25 43.75q0 15.5-7.75 30T545 863l34.5 97q3 8.5-2.25 15.75T562 983Zm50 98c47.333 0 90.5-2.33 129.5-7q58.5-7.005 101.25-19.5t66-30C824.25 1012.83 832 1000 832 986V562.5q0-13-29-26.5t-76.25-24.75T623.25 493 512 486t-111.25 7-103.5 18.25T221 536t-29 26.5V986c0 14 7.75 26.83 23.25 38.5q23.25 17.505 66 30T382.5 1074c39 4.67 82.167 7 129.5 7m0-403.5q-111.5 0-192.25-14T195.5 623.75 152 562.5h40q0 20 44 37.25t116.75 27.75T512 638t159.25-10.5T788 599.75t44-37.25h40q0 35.5-43.5 61.25t-124 39.75-192.5 14M321.5 573q-16 0-28.25-3t-16.75-8V328.5q0-74.5 29.5-130.5t82.5-87T512 80q71 0 123.75 31T718 198t29.5 130.5V562q-4.5 5-16.75 8t-28.25 3-28.25-3-16.75-8V328.5q0-77.5-38.5-120.5t-107-43-107 43-38.5 120.5V562q-4.5 5-16.75 8t-28.25 3"/></svg>