<svg xmlns="http://www.w3.org/2000/svg" viewBox="-8 80 1040 1040"><path fill="#10b981"  d="M303 934.5q46.5 0 73.5-22.25t27-60.75q0-24.5-11.75-41.25T358 785.5q17.5-9.5 27.25-26.25T395 722.5q0-32.5-22.25-51.75T312 651.5q-25 0-47.75 8T221 684l19 28.5q18-14.5 35.25-21.5t35.75-7q48 0 48 41.5 0 22.5-15.75 34.5T297 772h-36v33.5h36q35.5 0 52.25 10.75T366 850.5q0 25-16.5 38t-48 13q-20 0-42-6T222 880v37q38 17.5 81 17.5M619.5 833l82-118.5V833Zm82 97H738v-64h41v-33h-41V656h-33L574 840.5V866h127.5Zm-383-408H355V247.5h-28L244 310l21.5 26 53-41.5Zm265 0H763v-34H637.5v-2.5l51.5-50q30-29 46.5-54T752 321q0-35-22.5-56.25T671 243.5q-23 0-44.5 8.75T586 278.5l20 27q15-14 31.25-21.25T670 277q21.5 0 33.25 11.75T715 322.5q0 26-12 45t-40 47l-79.5 80ZM75 1120c-22.667 0-42.167-8.08-58.5-24.25Q-8 1071.495-8 1038V162.5q0-34 24.5-58.25T74.5 80h875q34 0 58.25 24.25c16.17 16.167 24.25 35.583 24.25 58.25v875c0 22.33-8.08 41.67-24.25 58-16.167 16.33-35.583 24.5-58.25 24.5Z"/></svg>