<svg xmlns="http://www.w3.org/2000/svg" viewBox="-33 80 1090 1040"><path fill="#10b981"  d="M477.5 1120c-45 0-91.333-7.83-139-23.5s-93.583-38.33-137.75-68q-66.25-44.5-119-108.25T-2 775.75-33 599.5t31-176.25T81.75 279t119-108 137.75-67.75T477.5 80t139 23.25T754.25 171t119 108T957 423.25t31 176.25-31 176.25-83.75 144.5-119 108.25c-44.167 29.67-90.083 52.33-137.75 68s-94 23.5-139 23.5m0-40c42.667 0 86.083-7.08 130.25-21.25s86.5-34.83 127-62q60.75-40.75 109-99.5T920 763.5t28-164q0-89.5-28-164.25T844 302t-109-99-127.25-61.75T477.5 120t-130.25 21.25T220 203t-109 99-76 133.25T7 599.5q0 89 28 164t76.25 133.75 109 99.5c40.5 27.17 82.917 47.83 127.25 62s87.667 21.25 130 21.25m0-101.5q-77 0-145-29.75t-120.25-82-82-120.75-29.75-145.5 30-145.5 82.25-121T333 251.5t144.5-30 144.5 30T742.25 334t82.25 121 30 145.5T824.75 746t-82 120.75-120.25 82-145 29.75m0-40q68.5 0 129.5-26.5t107.75-73.5 73.25-108 26.5-130-26.75-130.25T714 362t-107.75-73.75T477.5 261.5t-128.75 26.75T241 362t-73.75 108.25T140.5 600.5t26.5 130 73.25 108T348 912t129.5 26.5m0-96q-69 0-124.5-32t-87.75-87-32.25-124q0-68 32.5-122.75t88-86.75 124-32 124 32 88 86.75T722 599.5q0 69-32.25 124t-87.5 87-124.75 32m0-40q58.5 0 104.75-26.5t73-72.5 26.75-104q0-57-27-102.5t-73.25-72.25T477.5 398q-57.5 0-104 26.75T300 497t-27 102.5q0 58 26.75 104t73 72.5 104.75 26.5m0-122.5q-33.5 0-56.25-22t-22.75-58.5q0-37 22.75-58.75T477.5 519t56.25 21.75 22.75 58.75q0 36.5-22.75 58.5t-56.25 22m14.5-63-17-36 565-264 17 36Zm431-99.5q-26.5 0-56.25-6t-56.25-15.75-44-21.25l-7-17q5.5-30 19-63.25T812.75 332t47.75-47.25T919 266.5q20.5 0 40.5 7.75T990 293.5L977.5 359l7 16 60 38.5c0 30.333-10.83 55.25-32.5 74.75q-32.5 29.25-89 29.25"/></svg>